<?xml version="1.0" encoding="UTF-8"?>
<svg width="180px" height="181px" viewBox="0 0 180 181" version="1.1" xmlns="http://www.w3.org/2000/svg" xmlns:xlink="http://www.w3.org/1999/xlink">
    <!-- Generator: Sketch 46.2 (44496) - http://www.bohemiancoding.com/sketch -->
    <title>open-book</title>
    <desc>Created with Sketch.</desc>
    <defs>
        <polygon id="path-1" points="0.0263414634 0.174360602 0.0263414634 180.560051 179.825268 180.560051 179.825268 0.174360602"></polygon>
    </defs>
    <g id="Page-1" stroke="none" stroke-width="1" fill="none" fill-rule="evenodd">
        <g id="Artboard-2" transform="translate(-698.000000, -199.000000)">
            <g id="open-book" transform="translate(698.000000, 199.000000)">
                <path d="M102.325874,85.362715 C102.85626,86.3993106 103.913518,87 105.00505,87 C105.460295,87 105.928722,86.8954177 106.362875,86.6721915 C106.539963,86.5829889 124.197392,77.6143936 132.905485,74.8627354 C134.48434,74.3617947 135.360115,72.6761734 134.85873,71.0986497 C134.360861,69.5193684 132.68753,68.6405252 131.094173,69.1401476 C121.921608,72.0412091 104.383703,80.9496037 103.640635,81.3270669 C102.164605,82.0771596 101.575775,83.8831824 102.325874,85.362715 Z" id="Fill-1" fill="#FFFFFF"></path>
                <g id="Group-5">
                    <mask id="mask-2" fill="white">
                        <use xlink:href="#path-1"></use>
                    </mask>
                    <g id="Clip-3"></g>
                    <path d="M104.900927,51.2855353 C105.355756,51.2855353 105.823756,51.1785207 106.257512,50.9565645 C106.434439,50.8671655 124.075756,41.8770584 132.775902,39.1211022 C134.353317,38.6190584 135.228293,36.9297251 134.727366,35.3469659 C134.229951,33.7659684 132.558146,32.8851898 130.966244,33.3841509 C121.802049,36.291601 104.280146,45.2213747 103.537756,45.5996691 C102.063073,46.3514136 101.47478,48.1614136 102.224195,49.6424428 C102.754098,50.6830827 103.81039,51.2855353 104.900927,51.2855353 Z" id="Fill-2" fill="#FFFFFF" mask="url(#mask-2)"></path>
                    <path d="M176.827171,45.2711387 C175.170732,45.2711387 173.829512,46.6182895 173.829512,48.2781168 L173.829512,165.526922 C173.829512,170.500238 169.796195,174.546095 164.840049,174.546095 L92.9102927,174.546095 L92.9102927,167.6289 C97.2799024,166.096345 108.662049,162.521265 119.882634,162.521265 C145.990976,162.521265 163.718341,168.320311 163.894829,168.380645 C164.797024,168.680109 165.803707,168.530377 166.592634,167.964477 C167.374537,167.400338 167.835951,166.491815 167.835951,165.526922 L167.835951,33.2467494 C167.835951,31.8357421 166.861756,30.6163041 165.489805,30.3119951 C165.489805,30.3119951 163.140585,29.7852895 159.123951,29.0458759 C157.501756,28.7446496 155.934439,29.8284477 155.634146,31.4574477 C155.33561,33.0934939 156.41122,34.6590779 158.038683,34.9598637 C159.57,35.2421533 160.852829,35.4914136 161.84239,35.6891484 L161.84239,161.532151 C155.051122,159.745051 139.969756,156.507309 119.882634,156.507309 C106.825171,156.507309 93.9973171,160.809912 90.0289756,162.268482 C86.5014146,160.704659 75.8379512,156.507309 62.9380976,156.507309 C42.2938537,156.507309 25.2886829,159.923849 17.982878,161.658102 L17.982878,35.5724453 C23.9680976,34.0962603 41.6436585,30.2393309 62.9380976,30.2393309 C73.8658537,30.2393309 83.2381463,33.6523479 86.9149756,35.1937105 L86.9149756,153.502092 C86.9149756,154.584129 87.4962439,155.585134 88.434439,156.116684 C89.3721951,156.651757 90.5299024,156.638105 91.4558049,156.077489 C91.7525854,155.900012 121.446878,138.109165 147.803707,129.297856 C149.029902,128.885212 149.853073,127.739319 149.853073,126.444134 L149.853073,3.18137226 C149.853073,2.19578102 149.371024,1.27360584 148.561902,0.71122871 C147.758927,0.148411192 146.72678,0.019377129 145.800878,0.365523114 C121.822244,9.38821898 97.5578049,24.5332068 97.3141463,24.6847007 C95.9114634,25.5654793 95.4842927,27.4199586 96.3623415,28.8270024 C97.236878,30.2344866 99.0856098,30.6643066 100.491805,29.783528 C100.713073,29.6408418 121.822244,16.4670365 143.859512,7.57821898 L143.859512,124.291951 C123.400098,131.422294 102.040683,143.067068 92.9085366,148.279516 L92.9085366,33.2467494 C92.9085366,32.1061411 92.267122,31.0668224 91.2520976,30.5559708 C90.7358049,30.2996642 78.4532195,24.2271363 62.9380976,24.2271363 C35.856,24.2271363 15.0365854,30.1054526 14.1602927,30.3564745 C12.8757073,30.7228783 11.987561,31.9048832 11.987561,33.2467494 L11.987561,165.526922 C11.987561,166.467594 12.4314146,167.358942 13.1777561,167.926603 C13.7059024,168.327358 14.3402927,168.5339 14.9852195,168.5339 C15.2613659,168.5339 15.5375122,168.494265 15.8066341,168.416757 C16.0125366,168.359946 36.737561,162.521265 62.9380976,162.521265 C73.8948293,162.521265 83.2587805,165.94309 86.9149756,167.479168 L86.9149756,174.546095 L14.9852195,174.546095 C10.0273171,174.546095 5.99356098,170.500238 5.99356098,165.526922 L5.99356098,48.2781168 C5.99356098,46.6182895 4.65102439,45.2711387 2.99765854,45.2711387 C1.34297561,45.2711387 0,46.6182895 0,48.2781168 L0,165.526922 C0,173.81681 6.72234146,180.560051 14.9852195,180.560051 L164.840049,180.560051 C173.102488,180.560051 179.825268,173.81681 179.825268,165.526922 L179.825268,48.2781168 C179.825268,46.6182895 178.484049,45.2711387 176.827171,45.2711387 Z" id="Fill-4" fill="#FFFFFF" mask="url(#mask-2)"></path>
                </g>
                <path d="M102.325874,67.3622418 C102.85626,68.4006165 103.913518,69 105.00505,69 C105.460295,69 105.928722,68.8949761 106.362875,68.673503 C106.539963,68.5825408 124.197392,59.6137603 132.905485,56.8620453 C134.48434,56.3610943 135.360115,54.6754381 134.85873,53.0978819 C134.360861,51.5203257 132.68753,50.6414643 131.094173,51.1393393 C121.921608,54.0404607 104.383703,62.9490393 103.640635,63.3265103 C102.164605,64.0766185 101.575775,65.8844363 102.325874,67.3622418 Z" id="Fill-6" fill="#FFFFFF"></path>
                <path d="M102.325874,103.361042 C102.85626,104.399342 103.913518,105 105.00505,105 C105.460295,105 105.928722,104.893665 106.362875,104.672208 C106.539963,104.583011 124.197392,95.6131232 132.905485,92.8633655 C134.48434,92.3624508 135.360115,90.676917 134.85873,89.0994753 C134.360861,87.5202759 132.68753,86.6414783 131.094173,87.1393172 C121.921608,90.0402281 104.383703,98.9499178 103.640635,99.3273614 C102.164605,100.077415 101.575775,101.883344 102.325874,103.361042 Z" id="Fill-7" fill="#FFFFFF"></path>
                <path d="M72.6819253,55.6620526 C54.1577622,51.3091076 33.1086954,56.8552613 32.222826,57.0924946 C30.6250971,57.5225075 29.6737542,59.1694964 30.1030669,60.7737921 C30.4633908,62.1162069 31.6735517,63 32.9970829,63 C33.2563403,63 33.5173554,62.9674299 33.7779311,62.8987687 C33.9787458,62.8402306 54.2452067,57.5018211 71.3140128,61.5127805 C72.9192118,61.8877763 74.5411087,60.8869071 74.9203276,59.2711678 C75.2982282,57.6580694 74.2954732,56.0423301 72.6819253,55.6620526 Z" id="Fill-8" fill="#FFFFFF"></path>
                <path d="M72.6819253,73.6609585 C54.1577622,69.3104458 33.1086954,74.8543451 32.222826,75.0916138 C30.6250971,75.5216908 29.6737542,77.1689253 30.1030669,78.7734602 C30.4633908,80.1160751 31.6735517,81 32.9970829,81 C33.2563403,81 33.5173554,80.9674251 33.7779311,80.8969928 C33.9787458,80.8402068 54.2452067,75.5010013 71.3140128,79.5125587 C72.9192118,79.8876105 74.5411087,78.886592 74.9203276,77.2701716 C75.2982282,75.6572729 74.2954732,74.0395319 72.6819253,73.6609585 Z" id="Fill-9" fill="#FFFFFF"></path>
                <path d="M102.325874,121.362641 C102.85626,122.401041 103.913518,123 105.00505,123 C105.460295,123 105.928722,122.895413 106.362875,122.673934 C106.539963,122.584728 124.197392,113.613971 132.905485,110.862188 C134.48434,110.362983 135.360115,108.675528 134.85873,107.097933 C134.360861,105.520338 132.68753,104.641456 131.094173,105.139343 C121.921608,108.040096 104.383703,116.951089 103.640635,117.328569 C102.164605,118.078695 101.575775,119.8848 102.325874,121.362641 Z" id="Fill-10" fill="#FFFFFF"></path>
                <path d="M72.6819253,92.6617454 C54.1577622,88.3109825 33.1086954,93.8511975 32.222826,94.0919042 C30.6250971,94.5218319 29.6737542,96.1667345 30.1030669,97.7720327 C30.4633908,99.1146217 31.6735517,100 32.9970829,100 C33.2563403,100 33.5173554,99.963916 33.7779311,99.8952684 C33.9787458,99.8385021 54.2452067,94.4993894 71.3140128,98.5095546 C72.9192118,98.8862364 74.5411087,97.8855653 74.9203276,96.2697059 C75.2982282,94.6556068 74.2954732,93.0401874 72.6819253,92.6617454 Z" id="Fill-11" fill="#FFFFFF"></path>
                <path d="M72.6819253,127.661403 C54.1577622,123.31016 33.1086954,128.854145 32.222826,129.091285 C30.6250971,129.52113 29.6737542,131.167475 30.1030669,132.770703 C30.4633908,134.113033 31.6735517,135 32.9970829,135 C33.2563403,135 33.5173554,134.963923 33.7779311,134.895289 C33.9787458,134.836773 54.2452067,129.500452 71.3140128,133.509842 C72.9192118,133.882932 74.5411087,132.884214 74.9203276,131.268666 C75.2982282,129.656639 74.2954732,128.041091 72.6819253,127.661403 Z" id="Fill-12" fill="#FFFFFF"></path>
                <path d="M72.6819253,110.662839 C54.1577622,106.309645 33.1086954,111.852114 32.222826,112.092785 C30.6250971,112.520888 29.6737542,114.167306 30.1030669,115.771045 C30.4633908,117.112994 31.6735517,118 32.9970829,118 C33.2563403,118 33.5173554,117.963921 33.7779311,117.895284 C33.9787458,117.838526 54.2452067,112.500209 71.3140128,116.509777 C72.9192118,116.886402 74.5411087,115.88588 74.9203276,114.268502 C75.2982282,112.656403 74.2954732,111.041225 72.6819253,110.662839 Z" id="Fill-13" fill="#FFFFFF"></path>
            </g>
        </g>
    </g>
</svg>